<svg width="52" height="52" viewBox="0 0 52 52" fill="none" xmlns="http://www.w3.org/2000/svg">
<path d="M25.657 43.3813L25.6484 43.3813L25.6397 43.3813C25.5558 43.3818 25.4727 43.3658 25.3951 43.334C25.3182 43.3027 25.2482 43.2565 25.1891 43.1983C25.1885 43.1977 25.1879 43.1971 25.1873 43.1966L8.59101 26.5789C8.59019 26.5781 8.58937 26.5773 8.58856 26.5764C6.78503 24.7528 5.77344 22.2913 5.77344 19.7264C5.77344 17.1619 6.78465 14.7009 8.58754 12.8774C10.4053 11.0666 12.8666 10.0498 15.4325 10.0498C17.9999 10.0498 20.4625 11.0677 22.2805 12.8804C22.2807 12.8806 22.2809 12.8807 22.281 12.8809L24.5877 15.1876L25.6484 16.2482L26.709 15.1876L29.0157 12.8809C29.0159 12.8807 29.016 12.8806 29.0162 12.8804C30.8343 11.0677 33.2969 10.0498 35.8642 10.0498C38.4302 10.0498 40.8916 11.0666 42.7093 12.8775C44.5121 14.7011 45.5233 17.162 45.5233 19.7264C45.5233 22.2914 44.5117 24.7529 42.7081 26.5765C42.7073 26.5773 42.7065 26.5781 42.7057 26.5789L26.1095 43.1966C26.1089 43.1971 26.1083 43.1977 26.1077 43.1983C26.0485 43.2565 25.9785 43.3027 25.9017 43.334C25.824 43.3658 25.7409 43.3818 25.657 43.3813Z" stroke="#262626" stroke-width="3"/>
</svg>
